<?xml version="1.0" standalone="no"?>
<!DOCTYPE svg PUBLIC "-//W3C//DTD SVG 20010904//EN"
 "http://www.w3.org/TR/2001/REC-SVG-20010904/DTD/svg10.dtd">
<svg version="1.0" xmlns="http://www.w3.org/2000/svg"
 width="1024.000000pt" height="1024.000000pt" viewBox="0 0 1024.000000 1024.000000"
 preserveAspectRatio="xMidYMid meet">
<metadata>
Created by potrace 1.14, written by Peter Selinger 2001-2017
</metadata>
<g transform="translate(0.000000,1024.000000) scale(0.50000,-0.50000)"
fill="#000000" stroke="none">
<path d="M9091 8048 c-86 -173 -358 -309 -761 -382 -128 -23 -141 -25 -198
-32 -29 -3 -62 -7 -73 -9 -10 -2 -56 -7 -102 -10 -45 -4 -98 -9 -117 -12 -19
-3 -651 -8 -1405 -10 -753 -2 -1371 -6 -1373 -8 -3 -2 -5 -236 -6 -519 -1
-507 -1 -515 19 -518 11 -2 497 -3 1080 -2 937 1 1190 5 1262 18 11 3 46 7 77
10 128 14 478 102 531 134 6 4 15 7 21 8 46 7 366 189 420 239 7 5 30 25 53
44 69 55 158 147 236 242 118 143 250 398 305 589 21 74 62 262 57 266 -1 1
-13 -21 -26 -48z"/>
<path d="M4277 7584 c-1 -1 -45 -5 -97 -9 -52 -4 -101 -8 -110 -10 -8 -1 -42
-6 -75 -10 -33 -3 -78 -10 -100 -15 -22 -5 -60 -12 -85 -15 -24 -4 -48 -9 -52
-11 -4 -3 -20 -7 -35 -9 -53 -7 -345 -91 -398 -115 -11 -5 -60 -25 -110 -45
-49 -20 -96 -41 -102 -47 -7 -6 -13 -8 -13 -5 0 9 -202 -98 -305 -161 -209
-129 -334 -229 -520 -416 -337 -338 -579 -775 -676 -1217 -13 -57 -26 -108
-30 -113 -4 -5 -107 -9 -228 -9 l-221 0 0 -522 0 -522 221 1 c121 1 224 -1
229 -4 4 -3 10 -24 13 -46 23 -166 126 -455 235 -664 41 -77 139 -240 160
-265 4 -5 23 -32 42 -60 97 -141 302 -360 451 -480 41 -33 80 -66 87 -73 20
-18 259 -175 317 -208 53 -29 204 -104 295 -147 136 -63 443 -159 615 -192
207 -40 410 -62 618 -69 92 -3 97 -2 98 18 1 30 1 977 0 1003 -1 20 -6 21 -78
22 -43 1 -87 3 -98 5 -11 2 -49 7 -85 10 -52 6 -171 31 -280 60 -101 27 -338
136 -424 195 -25 17 -49 31 -55 31 -6 0 -11 4 -11 9 0 4 -17 20 -37 33 -44 29
-123 98 -167 146 -17 18 -43 46 -58 62 -16 16 -28 32 -28 36 0 3 -8 14 -18 23
-24 22 -111 152 -156 234 -43 79 -91 188 -115 267 l-18 55 199 -1 198 0 -2
520 -3 521 -165 2 c-91 1 -179 2 -197 2 -36 1 -36 0 11 125 163 428 491 754
937 930 76 29 274 82 340 90 24 3 64 8 89 11 24 3 82 8 129 10 46 3 86 7 89
10 7 7 8 1015 1 1027 -5 7 -214 9 -222 2z"/>
<path d="M8271 5829 c-29 -64 -120 -156 -202 -204 -154 -90 -422 -173 -649
-200 -25 -3 -56 -7 -70 -10 -14 -2 -54 -7 -90 -11 -36 -3 -72 -7 -80 -9 -65
-13 -416 -18 -1205 -17 l-920 0 1 -522 1 -521 769 0 c682 1 839 4 934 19 14 3
59 10 100 16 41 6 93 16 115 22 22 5 49 12 59 14 50 9 220 71 303 110 453 210
762 585 908 1102 13 48 27 103 30 122 13 71 23 135 21 137 -1 1 -12 -21 -25
-48z"/>
<path d="M5063 3156 c-4 -6 -8 -982 -4 -1029 1 -13 548 -6 626 9 113 21 120
23 202 54 265 101 480 298 592 542 62 134 83 218 96 368 l5 65 -756 0 c-426 0
-758 -4 -761 -9z"/>
</g>
</svg>
